<?xml version="1.0" encoding="utf-8"?>
<!-- Generator: Adobe Illustrator 22.1.0, SVG Export Plug-In . SVG Version: 6.00 Build 0)  -->
<svg version="1.1" id="Layer_1" xmlns="http://www.w3.org/2000/svg" xmlns:xlink="http://www.w3.org/1999/xlink" x="0px" y="0px"
	 viewBox="0 0 1024 500" style="enable-background:new 0 0 1024 500;" xml:space="preserve">
<style type="text/css">
	.st0{fill:#212121;}
	.st1{fill:#FCE4EB;}
	.st2{fill:#FCE4EA;}
</style>
<rect x="-1" class="st0" width="1025" height="500"/>
<g>
	<g>
		<path class="st1" d="M289.3,185v104h-26v26h-26v26h-104v-26h-26V185h26v-26h130v26H289.3z M237.3,185h-78v130h52v-26h-26v-26h52
			V185z M263.3,341v-26h26v26H263.3z"/>
	</g>
	<g>
		<path class="st2" d="M320.5,335.5v-13h-13v-77.8h25.9v77.8h38.9v-77.8h25.9v77.8h-13v13H320.5z"/>
		<path class="st2" d="M411.2,335.5v-64.8h13v-13h13v-13H476v13h13v13h13v64.8H476v-25.9h-38.9v25.9H411.2z M437.1,296.6H476v-25.9
			h-13v-13h-13v13h-13V296.6z"/>
		<path class="st2" d="M514.9,335.5v-90.7h25.9v13h13v13h13v13h13v-38.9h25.9v90.7h-25.9v-25.9h-13v-13h-13v-13h-13v51.8H514.9z"/>
		<path class="st2" d="M618.6,335.5v-90.7h64.8v13h13v13h13v38.9h-13v13h-13v13H618.6z M644.5,322.5h25.9v-13h13v-38.9h-13v-13
			h-25.9V322.5z"/>
		<path class="st2" d="M735.2,335.5v-13h-13v-64.8h13v-13H800v13h13v64.8h-13v13H735.2z M748.2,322.5h38.9v-64.8h-38.9V322.5z"/>
		<path class="st2" d="M825.9,335.5v-90.7h25.9v13h13v13h13v-13h13v-13h25.9v90.7h-25.9v-51.8h-13v25.9h-13v-25.9h-13v51.8H825.9z"
			/>
	</g>
</g>
</svg>
